<svg xmlns="http://www.w3.org/2000/svg" viewBox="0 0 47.92 31.61"><defs><style>.cls-1{fill:#fff;}</style></defs><title>Asset 4</title><g id="Layer_2" data-name="Layer 2"><g id="Layer_1-2" data-name="Layer 1"><path class="cls-1" d="M47.65,13.47a6,6,0,0,0-1.44-2.24l-9.6-9.77A4.68,4.68,0,0,0,34.44.13c-3.21-.85-4.59,2.72-4,5.32.52,2.2,1.93,4.11,2.45,6.31L3.77,11.07a3.91,3.91,0,0,0-2.36.6c-2.47,1.64-1.28,4,.43,4.89a8.91,8.91,0,0,0,3.74.67c6,.2,24.06.41,30.1.61L31.44,26a6.29,6.29,0,0,0-.72,2.31c-.27,3.17,2.48,3.83,4.39,3a9.4,9.4,0,0,0,3.1-2.49C41.74,25,49.46,18.77,47.65,13.47Z"/></g></g></svg>