<svg xmlns="http://www.w3.org/2000/svg" viewBox="0 0 24.45 37.5"><title>Asset 9</title><g id="Layer_2" data-name="Layer 2"><g id="Layer_1-2" data-name="Layer 1"><path d="M24.21,25.3a9.57,9.57,0,0,0-6.42-7.38c3.26-4.71,4.34-10.42-.55-15.27A9,9,0,0,0,6.69,1.05C1.91,3.56.48,8.79,0,13.78c-.36,3.84,5.64,3.81,6,0,.23-2.53,1.09-8.2,5-7.83,1.83.17,3.12,2.17,3.39,3.79.69,4.12-3,7.28-6.12,9.39l-.57.37-.26.17h0c-.2.15-.42.29-.61.46-2.63,2.18.78,6.53,3.63,4.71.63-.4,1.26-.85,1.88-1.33,6.32-3.24,8.8,10.83-.48,7.57-3.66-1.28-5.23,4.52-1.6,5.79C17.77,39.5,26,33.47,24.21,25.3Z"/></g></g></svg>