<svg xmlns="http://www.w3.org/2000/svg" viewBox="0 0 56.17 46.99"><title>Asset 1</title><g id="Layer_2" data-name="Layer 2"><g id="Layer_1-2" data-name="Layer 1"><path d="M54.23,16.71l-14.51-.47,8.11-8A2,2,0,0,0,45.4,5.08l-12.91,7.2C32.25,9.85,32,7.42,31.76,5,31.57,3.19,29,2,28,4S26,8,25,10L14.17.56A2,2,0,0,0,11.45.48,1.74,1.74,0,0,0,11,.65a2.05,2.05,0,0,0-.72,2.74l5.5,12.51L2,16.85a2,2,0,0,0-2,1.74,2,2,0,0,0,1.44,2.19l15,2.62Q11,31.2,5.64,39A2,2,0,0,0,7.9,41.93a106,106,0,0,0,12.61-5.62l-1.34,8.17a2,2,0,0,0,1.16,2.36,2,2,0,0,0,2.5-.82l4.64-10a49.21,49.21,0,0,0,6.82,8.64A2,2,0,0,0,37.7,43.3q.12-5.69.25-11.37v-.51a33.11,33.11,0,0,0,11,3.37c1.72.21,2.64-2.34,1.41-3.42l-7.55-6.66,12-4.07A2,2,0,0,0,54.23,16.71Z"/></g></g></svg>